<?xml version="1.0" standalone="no"?>
<!DOCTYPE svg PUBLIC "-//W3C//DTD SVG 1.1//EN" "http://www.w3.org/Graphics/SVG/1.1/DTD/svg11.dtd" >
<svg xmlns="http://www.w3.org/2000/svg">
<metadata></metadata>
<defs>
<font id="cagedmedium" horiz-adv-x="901" >
<font-face units-per-em="2048" ascent="1638" descent="-410" />
<missing-glyph horiz-adv-x="921" />
<glyph horiz-adv-x="2048" />
<glyph horiz-adv-x="2048" />
<glyph unicode="&#xd;" horiz-adv-x="681" />
<glyph unicode=" "  horiz-adv-x="921" />
<glyph unicode="&#x09;" horiz-adv-x="921" />
<glyph unicode="&#xa0;" horiz-adv-x="921" />
<glyph unicode="!" horiz-adv-x="395" d="M102 -4l13 215l153 -10l-12 -213zM106 418v131v162q0 106 7 256q4 150 14 229q8 76 10 96v27l2 76l154 -6l-2 -101q-2 -29 -12 -110q-8 -72 -13 -217q-6 -145 -6 -250v-162v-131h-154z" />
<glyph unicode="&#x22;" horiz-adv-x="735" d="M102 864l23 74l6 20q8 23 29 93q20 61 24 96l17 119l151 -23l-14 -117q-8 -49 -31 -122q-23 -68 -28 -91l-29 -94zM412 909l37 84q6 12 22 64q12 35 6 76l-22 135l151 26l23 -135q14 -80 -13 -153q-20 -55 -26 -74l-39 -84z" />
<glyph unicode="#" horiz-adv-x="1251" d="M102 494l76 12l78 12q53 10 152 10q12 70 22 146q8 68 16 127l-159 -35l-33 149l176 39q25 4 49 11q8 27 17 51q39 127 67 192l29 58l31 69l139 -63l-60 -129q-23 -49 -55 -152q8 0 17 2q111 14 208 23q23 88 35 153q16 90 19 109l6 90l153 -12l-6 -90q-2 -20 -20 -123 q-10 -53 -27 -119h19l100 -8l-10 -152l-101 6q-6 0 -51 -2q-41 -141 -76 -329l88 8l78 6l13 -152l-195 -18h-12q-20 -109 -33 -186l-31 -207l-151 24l30 205q10 68 27 156h-170q-12 2 -25 2q-12 -49 -26 -96q-47 -154 -57 -189l-11 -35l-20 -73l-148 41l21 73l10 37 q10 35 59 191q6 25 13 49q-61 -2 -92 -8l-154 -25zM563 528q109 0 193 2q2 10 4 25q32 168 67 301q-68 -6 -143 -16q-39 -4 -76 -11q-14 -78 -26 -174q-8 -66 -19 -127z" />
<glyph unicode="&#x26;" horiz-adv-x="1337" d="M102 453q-4 98 68 149q43 33 121 66q51 23 135 61q-27 31 -47 53q-68 76 -111 131q-29 39 -30 82q-6 68 51 131q68 72 190 127q115 49 172 64q74 18 115 6q14 -4 27.5 -11t21.5 -14.5t18.5 -20.5t13.5 -19.5t12 -25t13 -22.5q39 -70 68 -129q33 -63 45 -98q12 -43 10 -78 q-2 -12 -5 -22.5t-6 -18.5t-11 -16t-12.5 -13.5t-14.5 -11.5t-12 -8t-14 -8l-11 -6q-47 -25 -133 -72q-43 -23 -100 -51q113 -127 186 -229q13 -17 27 -35q8 10 14 20q55 78 96 125q43 49 66 66l14 12l62 47l94 -121l-76 -59q-10 -8 -45 -45q-35 -41 -84 -113 q-27 -37 -45 -72l16 -24q57 -86 82 -109l33 -30l58 -52l-103 -114l-90 82q-33 29 -80 98q-16 -14 -33 -21q-29 -14 -90 -24q-53 -8 -188 -33q-143 -25 -217 -24q-33 0 -50.5 1t-44 9t-47.5 28q-33 29 -61 109q-25 63 -43 137q-23 80 -25 146zM256 459q2 -49 18 -111 q18 -68 39 -125q12 -29 21 -45q14 -2 37 -2q61 0 192 23q137 25 191 32q27 6 43 11q4 6 10 20q-33 47 -70 96q-72 100 -182 226q-9 10 -23 26q-117 -55 -180 -84q-61 -27 -92 -49q-4 -2 -4 -18zM391 1006q39 -51 101 -119q34 -37 79 -88q76 37 134 65q84 45 133 74 q-8 23 -33 74q-31 57 -68 125q-12 23 -22 37q-12 -2 -27 -7q-45 -10 -147 -55q-94 -41 -138 -90q-8 -8 -12 -14v-2z" />
<glyph unicode="'" horiz-adv-x="430" d="M102 852l27 72l18 51q16 43 21 102q8 66 8 105v118h154v-118q0 -47 -8 -119q-8 -80 -29 -139l-47 -125z" />
<glyph unicode="(" horiz-adv-x="788" d="M104 479q-10 147 29 279q35 127 107 264q70 133 135 246q68 121 112 166l91 94l110 -107l-90 -94q-31 -31 -90 -135q-66 -111 -131 -240q-66 -125 -96 -235q-31 -106 -23 -228q8 -125 51 -268q45 -141 94 -213q51 -76 97 -127q41 -49 59 -61l86 -64l-90 -123l-86 64 q-31 23 -86 82q-51 59 -109 143q-59 92 -110 254q-51 160 -60 303z" />
<glyph unicode=")" horiz-adv-x="772" d="M102 1395l101 116l108 -94q57 -51 138 -176q78 -123 130 -265t74.5 -289.5t15.5 -304.5t-34 -271q-29 -117 -76 -205t-102 -148q-53 -57 -101 -86q-37 -25 -55 -39l-84 -59l-90 123l84 61q23 16 61 43q31 18 72 64q41 43 80 112q37 72 61 170q25 100 31 241.5t-14.5 274 t-67.5 259.5t-117 237q-68 106 -108 144z" />
<glyph unicode="+" horiz-adv-x="1138" d="M102 684l134 12q59 4 196 4q49 0 96 2q2 141 -2 248l-4 211l154 4l2 -75l2 -138q4 -104 2 -247q4 2 6 2q123 4 193 8l147 8l8 -154l-147 -8q-70 -4 -195 -8q-8 0 -16 -2q-6 -143 -14 -236l-21 -188l-151 16l18 187q8 84 14 219q-45 -2 -92 -2q-129 0 -182 -4l-133 -13z " />
<glyph unicode="," horiz-adv-x="495" d="M102 -66l99 31q8 4 24 19q8 10 11 43q4 59 4 102v121h153v-121q0 -47 -4 -111q-4 -90 -55 -141q-43 -45 -88 -57l-25 -8l-74 -23z" />
<glyph unicode="-" d="M102 516l4 152h76l80 -2t184 -11q96 -6 162 -2q72 4 94 4h97v-153h-97q-18 0 -86 -4q-74 -4 -180 4q-102 6 -178 8z" />
<glyph unicode="." horiz-adv-x="358" d="M102 8v201h154v-201h-154z" />
<glyph unicode="/" horiz-adv-x="956" d="M102 -33l64 162q37 90 117 281q78 186 182 458q106 274 143 365q2 8 9.5 27.5t11.5 26.5t10 21.5t11 21.5t13.5 17.5t16.5 18.5l76 64l100 -115l-72 -62q-12 -20 -34 -77q-35 -90 -142 -363q-106 -274 -184 -463q-80 -188 -115 -278l-35 -90l-28 -72z" />
<glyph unicode="0" horiz-adv-x="1136" d="M102 938l2 41l5 78v14v14q-2 106 0 179q0 76 7 108.5t35.5 60t67.5 27.5q31 0 90 -16q51 -14 129 -33q74 -18 170 -29q100 -10 164 -20q80 -12 125 -51q53 -47 55 -119q2 -43 -4 -127q-6 -78 -6 -236q-2 -154 21 -260q23 -113 49 -209q31 -117 20 -172q-6 -37 -28 -63 q-27 -33 -72 -43q-41 -10 -170 -23q-125 -12 -227 -26q-109 -14 -203 -13q-8 0 -32 -1t-36 0t-31.5 5.5t-35 15.5t-29.5 30q-10 18 -17.5 38.5t-8.5 33t-3 49t-2 53.5q-10 119 -14 239q-6 119 -14 262q-8 147 -7 193zM258 848q2 -41 4 -94q8 -145 12 -265q6 -117 15 -235 q4 -47 8 -78q16 -2 35 -2q84 0 182 12q104 12 236 27q90 8 131 14q-2 33 -19 92q-27 100 -51 220q-25 123 -23 290q0 164 7 248q6 76 4 109q0 6 -2 8q-12 10 -47 16q-59 8 -158 19q-106 12 -191 33q-80 20 -131 32l-8 2v-36q-2 -68 0 -170q2 -106 2 -136v-106h-6z" />
<glyph unicode="1" horiz-adv-x="784" d="M102 1280l113 6q39 4 141 4q49 0 88 2l2 70l154 -4v-60h82v-153h-86q-2 -88 -2 -250q2 -219 8 -414q8 -201 4 -278q-2 -82 -8 -111l-18 -98l-152 29l14 75l7 23q2 18 4 86q4 76 -4 268q-6 199 -9 418q0 158 2 246q-37 -2 -84 -2q-98 0 -133 -2l-37 -5l-75 -4z" />
<glyph unicode="2" horiz-adv-x="1312" d="M102 645q-6 76 39 117q20 20 52 31q51 14 206 22q150 8 291 12q113 2 166 4v91q-2 119 -4 204q0 41 -4 66q-25 0 -62 -2q-74 0 -188 4q-94 6 -135 -12q-23 -10 -31 -19q-10 -25 -14 -78l-4 -65l-8 -76l-152 12l12 144q6 76 23 121q25 63 112 100q74 33 203 27 q111 -4 180.5 -3t89.5 3q39 4 69 -19.5t42 -54.5q18 -41 21 -144q2 -90 4 -206v-142q0 -94 -121 -102q-55 -4 -197 -6q-137 -4 -284 -12q-102 -6 -150 -13q4 -55 16 -153q14 -117 13 -228q-2 -47 0 -78q47 0 153 7q131 10 283 8q150 0 260 -8q117 -6 139 -13l15 -2l73 -18 l-36 -150l-87 21q-23 4 -112 10q-109 6 -254 6q-145 2 -270 -6q-131 -10 -183 -8q-104 2 -129 82q-10 37 -6 153q2 100 -10 205q-14 113 -21 168z" />
<glyph unicode="3" horiz-adv-x="1210" d="M102 1313l211 18q139 12 260 11t177 -5q92 -8 127 -71q25 -45 28 -166q0 -100 8 -309q0 -31 2 -60h39l70 4l78 4l6 -153l-76 -4l-69 -4h-41q4 -63 8 -113q10 -121 16 -178q8 -80 -8 -119q-6 -14 -14.5 -25.5t-20.5 -19.5t-19 -13.5t-23.5 -9.5t-20.5 -5t-22 -3l-19 -2 q-78 -12 -256 -6q-170 6 -254 10l-162 8l8 154l160 -8q84 -4 254 -10q164 -6 225 4q12 2 21 4q0 12 -2 24q-6 59 -17 183q-4 53 -8 122q-10 2 -23 3q-143 2 -196 2l-127 4l4 153l127 -4q51 0 195 -2h14q-2 27 -2 55q-8 209 -8 312q-2 55 -9 86h-6q-49 6 -163.5 6t-245.5 -12 l-211 -19z" />
<glyph unicode="4" horiz-adv-x="1288" d="M102 1317l154 10l12 -184q6 -113 4 -215q-4 -94 0 -142q4 -2 11 -4q43 -16 176 -16h172q0 16 2 35q16 248 16 334q2 82 -2 102l-14 100l151 23l15 -103q6 -31 4 -124q0 -90 -17 -342q-2 -12 -2 -25q143 -2 232 -10l170 -17l-15 -153l-75 8l-95 8q-84 8 -225 10 q-8 -133 -8 -233q-2 -166 0 -225l4 -138l-154 -4l-4 138q-2 59 0 229q0 102 9 233h-162q-162 0 -232 25q-66 25 -92 78q-16 27 -18 59q-4 53 0 158q2 96 -4 201l-9 108z" />
<glyph unicode="5" horiz-adv-x="1150" d="M102 379l148 41l20 -74l4 -14q14 -18 52 -58q49 -51 110 -71q57 -20 144 4q96 29 153 72t109 135q51 92 53 153q4 66 -29 146q-35 84 -75 131q-37 41 -113 67q-82 29 -168 27q-98 -2 -162 -12q-82 -12 -125 -4q-39 6 -68.5 38.5t-23.5 77.5q2 20 2 95q0 86 6 131 q6 51 39 79q31 27 74 27q33 0 113 -2q84 -2 219 -20q137 -18 188 -39l115 -41l-53 -146l-115 43q-35 14 -158 31q-125 16 -201 18q-41 2 -71 3q-2 -35 -2 -82v-62q16 2 39 4q74 12 180 15q115 2 223 -35q113 -41 176 -113q57 -66 103 -174q47 -111 41 -209q-4 -98 -72 -221 t-152 -184q-80 -59 -202 -97q-133 -39 -236 -2q-98 33 -172 111l-19.5 19.5t-18.5 19.5t-15 17.5t-14.5 18.5t-9.5 18t-9 24z" />
<glyph unicode="6" horiz-adv-x="1157" d="M102 698v154h82q-4 135 -6 221q-4 96 4 148q12 76 70 110q41 25 121 31q61 4 147 8q88 4 207 -2q121 -6 164 -12l115 -21l-25 -151l-115 20q-35 6 -147 10q-111 6 -191 3q-84 -4 -143 -9q-33 -2 -49 -8q-2 -2 -2 -6q-6 -35 -4 -117q4 -88 8 -225h29q96 2 213 12 q119 8 192 17q94 10 139 -9q68 -27 82 -94q8 -37 6 -96q0 -45 11.5 -156.5t33.5 -214.5q10 -45 13.5 -74.5t-11 -71.5t-51.5 -65q-55 -31 -159 -32q-82 -2 -205 -9q-125 -8 -225 -16q-10 0 -33 -2t-31 -2t-23.5 -1t-23.5 0t-20.5 3t-22.5 4q-37 12 -55.5 44t-20.5 63 q-2 35 -2 84t2 153t6 209q4 45 4 100h-84zM328 193q27 2 65 4q102 8 228 16q127 6 213 8q43 0 67 8q0 20 -6 52q-25 111 -37 230.5t-12 172.5q2 27 0 47q-23 0 -58 -4q-76 -8 -196 -16q-121 -10 -223 -11q-15 -2 -29 -2q0 -59 -4 -108q-4 -100 -6 -203q-2 -102 -2 -151v-43z " />
<glyph unicode="7" horiz-adv-x="1200" d="M102 1327l121 8q47 4 156 11q106 4 270 16q168 12 264 12q94 -2 111 -4q39 -2 58.5 -19.5t17.5 -41t-10.5 -46t-16.5 -36.5l-10 -17q-25 -31 -62 -94q-37 -70 -108 -213q-72 -145 -115 -260q-43 -111 -61 -219q-20 -111 -15 -195q4 -90 11 -141q6 -53 8 -65l10 -91 l-151 -18l-11 76l-2 14q-2 14 -8 68q-4 53 -10 149q-6 102 16 228q20 125 70 249q45 121 119 273q74 147 114 219q8 14 17 31q-86 -2 -223 -13q-166 -12 -275 -16q-109 -6 -151 -10l-121 -8z" />
<glyph unicode="8" horiz-adv-x="1204" d="M102 1350l7 153l118 -4q47 -2 117 -12q61 -8 145 -14q86 -4 173 0q96 6 169 2q51 -2 97.5 -29t46.5 -88q0 -37 2 -144q2 -104 16 -237q16 -135 39 -270q27 -137 49 -295q27 -166 21 -246v-4q-8 -127 -98 -139q-29 -4 -125 -7q-88 -2 -211 -6q-123 -6 -275 -8h-45h-45 t-36.5 1t-38 5t-30 12.5t-30.5 20.5q-53 47 -43 154q8 59 -2 155q-10 104 -17 303q-6 195 -2 351q6 156 15 245l8 86l2 15h-27zM258 731q0 -37 2 -74q6 -193 14 -292q12 -111 5 -187q0 -8 -3 -18q41 -4 115 -4q150 2 271 8q123 4 215 6q43 0 71 2v6q4 61 -18 209 q-23 156 -47 293q-6 29 -11 57l-51 6q-29 2 -143 2q-119 2 -219 3q-96 0 -142 -9l-51 -6zM258 887l37 6q55 8 162 8q102 0 221 -2q125 0 160 -4h12q-4 31 -8 63q-16 141 -19 252q-2 70 -2 111q-66 4 -149 -2q-96 -6 -191 0q-92 6 -162 16q-18 2 -36 6l-11 -108 q-8 -84 -14 -234v-112zM266 733zM870 891z" />
<glyph unicode="9" horiz-adv-x="1220" d="M102 1208q2 43 23 76q29 41 82 53q49 8 119 13q63 4 196 18q135 14 240 21q45 8 94 5t84 -32q49 -41 45 -135q0 -59 -4 -148q-4 -90 -10 -196q-2 -11 -2 -21h39l100 8l12 -153l-102 -6q-14 -2 -55 -2v-82q0 -152 2 -252q0 -100 6 -162q6 -82 -6 -117q-10 -27 -35 -48 t-60 -23h-69t-158 2q-102 0 -192 -4q-94 -4 -134 -5h-114v154h114q35 0 125 4q96 6 203 4q102 -2 156 -2h18q-2 12 -2 23q-4 68 -6 170t-2 256v78h-143q-156 0 -297 18q-6 2 -40 4t-54.5 6t-49 15.5t-44 34t-17.5 55.5q-2 20 -8 63t-29 141q-27 111 -25 166zM256 1190 q4 -41 20 -113q25 -104 31 -153q4 -18 6 -35q29 -6 76 -12q131 -18 277 -19h149q0 18 2 33q6 109 10 194q4 86 4 146q2 2 3 6q-25 2 -60 -2q-104 -6 -237 -21q-135 -14 -203 -16q-43 -4 -78 -8z" />
<glyph unicode=":" horiz-adv-x="440" d="M102 995l152 31l37 -186l-152 -29zM109 145l100 162l131 -82l-61 -96l-39 -66z" />
<glyph unicode=";" horiz-adv-x="487" d="M102 -119l91 56q10 8 20 18q6 12 10 45q6 47 6 78q0 33 -2 59l-12 109l152 16l12 -108q4 -35 4 -76q0 -43 -8 -101q-8 -70 -37 -110q-27 -37 -64 -60l-90 -57zM215 825l18 187l154 -15l-18 -186z" />
<glyph unicode="=" horiz-adv-x="1060" d="M102 475l76 4l58 2q59 4 221 8q158 4 231 11q84 6 113 0l90 -19l-29 -149l-90 16q-18 2 -74 -2q-78 -6 -239 -10q-158 -4 -213 -6l-135 -8zM102 860l134 29q66 14 174 14q100 -2 233 -12q127 -8 182 -8h136v-154h-136q-61 0 -194 8q-129 10 -223 13q-90 0 -140 -11 l-133 -28z" />
<glyph unicode="?" horiz-adv-x="1085" d="M102 961v122q0 47 7 123q8 106 59 148q23 18 52.5 27.5t51 11.5t62.5 2q100 2 241 -2q147 -6 213 -23q86 -20 146 -110q53 -84 49 -189q-4 -115 -65 -166q-51 -43 -164 -55q-84 -10 -162 -33q-20 -6 -30.5 -12t-12.5 -8v-2q-12 -39 -8 -95q6 -72 8 -122v-48l2 -77 l-154 -2l-2 77v47q0 45 -6 113q-8 82 12 150q27 92 150 127q88 25 184 36q63 8 84 23q8 12 10 53q2 55 -24 101q-25 37 -53 43q-49 12 -183 18q-137 4 -231 2q-47 0 -70 -6q-4 -16 -6 -41q-6 -70 -6 -111v-122h-154zM395 528zM399 14v193h154v-193h-154z" />
<glyph unicode="@" horiz-adv-x="1763" d="M102 10q-2 129 11 254q12 119 24 297t21 336q6 166 24 246q27 119 154 160q98 31 262 28q154 -2 295 -12q139 -10 297 -25q164 -16 266 -41q117 -29 160 -71q47 -49 47 -152q0 -74 -14 -205q-14 -127 -27 -241q-12 -115 -20 -262q-10 -152 -17 -216q-8 -96 -57 -135 q-43 -37 -144 -45q-82 -6 -198 -8h-72t-58.5 5t-51.5 18q-55 29 -68 79q-25 0 -62 -2q-86 -2 -159 2q-96 2 -160 56q-70 55 -78 143q-4 57 -8 203q-2 158 39 280q25 72 74 119t118 60q106 20 232 14q119 -4 149 -6h9v39l153 -4l-4 -156q-2 -88 -39 -240q-37 -145 -61 -235 q-25 -86 -37 -162q-6 -33 -10 -57q33 -4 92 -2q111 2 186 8q37 2 57 8q4 12 7 33q6 61 14 211q8 152 20 268q14 115 27 242q14 125 14 190q0 31 -6 43q-23 14 -84 29q-90 23 -243 37q-156 14 -295 24q-135 10 -285 13q-139 2 -213 -23q-43 -14 -51 -45q-14 -70 -21 -217 q-8 -164 -20 -342q-12 -180 -25 -303q-12 -117 -10 -236q2 -117 6 -159q2 -2 6 -3q39 -14 131 -12q106 2 308 6q201 4 297 2q100 -2 120 -4l93 -12l-19 -152l-92 11q-16 2 -105 4q-94 2 -292 -2q-201 -4 -306 -6q-121 -2 -186 20q-59 23 -88 68q-16 29 -20 61q-4 47 -7 176z M623 426q4 -141 8 -195q2 -23 20 -36q25 -20 70 -23q68 -2 147 0q59 2 84 2q14 78 39 160q25 88 60 229q25 104 32 172h-4q-35 2 -153 6q-109 6 -197 -10q-29 -6 -46 -22.5t-30 -55.5q-33 -96 -30 -227z" />
<glyph unicode="A" horiz-adv-x="1601" d="M102 672l2 153l177 -2h2v117q-2 82 -9 156q-4 80 -4 118q4 80 109 134q74 37 201 59q121 18 233 25q90 6 146 6h26q68 0 127 -15q68 -18 98 -47q10 -10 18.5 -22.5t12.5 -20.5t8 -24.5t5 -22.5t2 -27.5t1 -23.5q7 -73 7 -184v-29q0 -113 -4 -246q18 -1 34 -1q32 0 56 3 l137 10l12 -151l-137 -12q-29 -3 -67 -3q-19 0 -40 1q-2 -76 -4 -129q-4 -90 -6 -179q-2 -92 -4 -135q-2 -47 -6 -78l-2 -26l-10 -76l-152 18l12 105q4 25 4 63q2 41 5 131q2 90 6 183q2 53 4 129q-92 4 -228 10q-207 8 -354 20q-45 2 -86 5q-2 -143 -10 -295 q-6 -131 -6 -193v-26l2 -58l4 -78l-154 -6l-6 135v29q0 67 6 205q8 152 11 293h-103zM424 1196q0 -33 4 -90q6 -76 8 -164v-125q45 -2 96 -6q143 -10 349 -18q135 -6 225 -11q4 131 4 242v58q0 83 -4 139q-4 29 -6 45q-12 4 -27 8q-39 10 -88 10q-55 0 -162 -4 q-104 -6 -219 -25q-102 -18 -155 -45q-14 -8 -25 -14z" />
<glyph unicode="B" horiz-adv-x="1525" d="M102 825l76 17l45 10q47 12 113 20q0 4 -2 13q0 72 -4 161t-6 121v17q0 33 6 59q10 49 57 86q41 33 119 47q66 12 123 15q55 4 104 4t103 -6q53 -6 112 -23q66 -18 107 -43q47 -31 75.5 -78t34.5 -119q1 -14 1 -28q0 -55 -19 -105q-27 -72 -100 -112q66 -16 114 -43 q74 -37 119 -84q43 -45 86 -119q48 -81 56 -155q2 -19 1 -37q0 -56 -18 -111q-25 -70 -72 -137q-53 -74 -139 -119q-78 -43 -203 -68q-121 -23 -225 -27q-32 -1 -62 -1q-68 0 -126 6q-80 6 -107 10l-98 16l2 13h-23v96q0 20 2 104q0 82 -2 183.5t-8 250.5q-2 31 -2 60 q-49 -8 -86 -17l-45 -10l-76 -16zM406 883zM477 1176q2 -35 5 -125t5 -162q2 -6 2 -15q16 5 43 7q76 20 156 41q37 8 74 18q43 12 90 27q78 25 121 47q25 14 31 33q9 23 9 49q0 9 -1 18q-2 35 -12.5 51.5t-26.5 26.5q-20 12 -66 25q-49 14 -90 18q-43 6 -84 6q-45 0 -96 -2 q-47 -4 -102 -14q-41 -8 -54 -17l-4 -4v-28zM496 715q0 -23 2 -49q6 -150 8 -254.5t2 -188.5q-2 -49 -2 -76q29 -4 86 -10q44 -4 96 -3q34 0 72 1q94 2 201 25q102 20 161 51q53 29 86 72q35 49 52 98q10 32 10 62q0 11 -1 22q-5 41 -36 92q-35 57 -64 90q-29 29 -79 54.5 t-123 37.5q-82 12 -158 13h-19q-71 0 -159 -13q-39 -4 -68 -8q-45 -10 -67 -16z" />
<glyph unicode="C" horiz-adv-x="1323" d="M102 623q4 129 97 317q90 188 207 291q119 104 241 131q50 11 97 12q73 0 141 -28q104 -43 176 -127q66 -78 100 -148q39 -72 45 -110l2 -25l13 -76l-152 -22l-12 75l-2 25q-4 16 -29 63q-29 53 -82 119q-47 55 -117 82q-40 17 -87 17q-29 0 -60 -7q-84 -18 -172 -98 q-94 -82 -172 -242q-76 -160 -80 -256v-19q0 -93 35 -214t123 -197q90 -78 202 -102q50 -11 96 -11q57 0 109 17q94 31 158 98q57 61 61 103l7 67l8 76l151 -14l-12 -144q-10 -92 -104 -192q-88 -96 -222 -139q-78 -26 -162 -26q-60 0 -122 13q-150 35 -271 138 q-123 106 -170 272q-41 143 -41 260v21z" />
<glyph unicode="D" horiz-adv-x="1302" d="M102 43l9 154l137 -9h6v68q0 84 -2 215q-4 133 -4 208t2 163t2 135v178l-19 -10l-75 133l94 53q41 23 141 31q53 5 103 5q37 0 73 -3q84 -8 172 -31q94 -23 183 -78q86 -53 143 -116q59 -66 96 -178q37 -106 37 -226q0 -117 -33 -229q-35 -119 -90 -182 q-49 -59 -129 -119q-82 -59 -176 -99q-92 -39 -205 -57q-109 -18 -190 -18q-76 2 -137 4zM401 679q0 -73 5 -204q2 -133 2 -219v-72q59 2 135 17q94 14 170 47q78 33 143 80q68 51 105 96q35 39 59 125q27 92 27 186t-29 178q-27 80 -66 123q-43 47 -108 90q-68 39 -139 58 q-78 20 -150 26q-35 3 -72 3t-75 -3h-1t-1 -2v-231q0 -49 -3 -137q-2 -88 -2 -161z" />
<glyph unicode="E" horiz-adv-x="1441" d="M102 780l4 154h76l80 -2h25q0 51 2 102q4 131 10 176q4 31 18 58q25 39 70 61q53 25 168 37q102 10 231 12h37q108 0 193 -10q100 -14 137 -27l100 -36l-53 -144l-100 37q-20 6 -103 16q-81 11 -191 11h-18q-121 -2 -219 -13q-86 -8 -114 -22q-2 0 -4 -2q-6 -37 -9 -160 q-2 -47 -2 -94q6 0 9 2q113 4 221 11t192 14l162 14l12 -154l-159 -12q-86 -8 -197 -15.5t-223 -11.5q-8 -2 -15 -2q6 -127 8.5 -257t4.5 -247q2 -113 2 -153h6q34 -1 76 -1t92 1q102 2 254 8q152 8 237 21q90 12 109 14l94 10l14 -153l-92 -9q-16 -2 -102 -14 q-94 -14 -252 -20q-156 -8 -258 -11q-52 -1 -96 -1t-80 1l-23 -1h-10q-14 0 -24 2q-12 3 -32 8.5t-34 20.5t-23 38q-10 27 -10 69v15q0 39 -2 153q-2 117 -4 246q-2 131 -8 254v4h-31l-80 2h-76z" />
<glyph unicode="F" horiz-adv-x="1404" d="M102 801v153h76h2h-2h2h88h13q-8 96 -13 164q-3 43 -3 75.5t3 53.5q4 43 31 74q23 25 53 37q42 16 118 17q8 0 17 -1q76 0 191 -8q113 -6 219 -10q69 -3 130 -3q30 0 58 1q86 2 103 4l96 12l19 -151l-97 -13q-25 -4 -114 -6q-30 -1 -62 -1q-65 0 -139 3q-109 4 -223 10 q-111 8 -183 9q-14 1 -26 1q-24 0 -39 -3q-1 -11 -1 -25q0 -28 3 -68q2 -68 12 -163q10 2 19 2q104 12 178 22q72 8 96 14l100 21l33 -150l-76 -16l-26 -6q-29 -4 -107 -16q-76 -10 -180 -21q-12 -2 -25 -4q4 -72 5 -150v-27q0 -140 -19 -290q-20 -162 -22 -192l-4 -31 l-9 -78l-151 16l8 76l2 33q4 33 23 194q18 142 18 271v26q0 76 -4 144h-25h-88h-78z" />
<glyph unicode="G" horiz-adv-x="1431" d="M102 907q4 131 43 213q45 92 127 129q68 29 195 45q115 16 254 41q124 24 196 24q14 0 27 -1q76 -6 117 -51q16 -18 26 -45q16 -43 16 -107q0 -29 -3 -61q-6 -90 -8 -136l-2 -122l-154 4l2 75v48q2 49 10 143q2 27 2 48q0 31 -4 48q-6 2 -14 2q-7 1 -16 1q-54 0 -166 -21 q-143 -27 -263 -41q-104 -14 -151 -35q-33 -14 -53 -55q-25 -51 -27 -150v-46q0 -96 6 -212q6 -141 21 -231q12 -72 24 -97q16 -14 70 -34q80 -31 174 -47q98 -16 229 -33q88 -10 142 -10q24 0 41 2q29 2 38 20q13 21 13 62v16q-8 76 -19 139q-12 61 -18 90q-55 -2 -98 -2 l-146 6l6 154l76 -2l68 -4h26q55 0 125 6q92 6 152 10l135 8l10 -151l-135 -10q-31 -2 -63 -5q4 -29 12 -73q12 -70 20 -152q2 -20 2 -38q0 -78 -34 -136q-51 -82 -154 -90q-25 -3 -57 -3q-64 0 -158 11q-137 14 -240 33q-111 20 -202 55q-55 20 -89 41t-55 56 q-27 43 -47 151q-16 98 -22 252q-7 133 -7 241v27zM1120 588z" />
<glyph unicode="H" horiz-adv-x="1433" d="M102 731l11 154q-56 -439 -56 -443t58 441h2h2h2h2h2h2h2h2h2h2h2h2h2l2 -2h2h2h3h2h2h2h2h2h2h2h2h2h2l2 -2h2h2h2h2h2h2h2h2h2h3h4h2h2l2 -2h2h2h2h2h2h2h2h2h2h2h2h2h2l2 -3h2h3h2h2h2h2h2q2 49 2 93q8 174 12 241l4 66l6 78l154 -11l-10 -143q-4 -68 -13 -237 q0 -43 -2 -93q47 0 101 2q125 6 299 11q117 4 207 4l4 28q23 170 30 254l19 164l151 -18l-16 -162q-10 -86 -33 -258q0 -4 -2 -10h68h106v-154h-106h-82q-3 -59 -3 -118q0 -30 1 -60q2 -184 2 -315q0 -135 -6 -183l-13 -121l-153 17l14 121q4 39 4 166q0 131 -2 313 q-1 31 -1 61q0 61 3 121q-82 0 -188 -4q-172 -4 -295 -10q-59 -2 -113 -2q-2 -82 -2 -172q-2 -252 -4 -375q-2 -127 -4 -162l-4 -112l-154 6l4 77v35q2 35 4.5 158t4.5 373q0 96 2 178z" />
<glyph unicode="I" horiz-adv-x="372" d="M102 242q0 88 2 262q4 172 8.5 295t4.5 235q0 111 -2 133v27l-6 76l153 10l6 -100q2 -29 2 -146q0 -115 -4 -239q-4 -123 -8 -293q-2 -172 -2 -260q2 -90 2 -117v-102h-154v102q0 27 -2 117z" />
<glyph unicode="J" horiz-adv-x="1398" d="M102 178v23q0 61 9 118l22 136l152 -25l-23 -135q-6 -41 -6 -87v-24t2 -20h8q45 4 111 10q48 3 116 3q35 0 74 -1q55 -1 99 -1t75 1q43 4 66 17q12 8 16 20q8 37 13 123q2 94 10 178q4 60 4 163v73q-2 160 -2 297q-2 137 -2 163v4q-45 -4 -84 -10l-150 -22l-24 151l76 13 l73 12q70 10 151 10h27q90 -2 170 -6q54 -4 82 -4h15l106 6l8 -154l-106 -6h-20q-35 0 -95 4q-37 2 -76 4v-2q0 -27 2 -161q0 -135 3 -297v-56q0 -122 -7 -194q-6 -82 -8 -172q-4 -100 -18 -154q-18 -76 -86 -117q-55 -31 -137 -34q-45 -3 -112 -3q-34 0 -73 1q-32 1 -60 1 q-69 0 -114 -4q-63 -6 -113 -8q-12 -1 -24 -1q-56 0 -92 24q-25 18 -38 47t-15.5 45t-4.5 51z" />
<glyph unicode="K" horiz-adv-x="1267" d="M102 786l99 13q14 2 35 4h10q8 2 18 2q-3 111 -3 202q0 46 1 87v186v100h154v-100v-186q-1 -40 -1 -84q0 -88 3 -195q18 4 37 6q57 10 129 56q74 45 129 114q63 78 133 178q74 104 115 152l90 102l114 -100l-49 -57l-39 -45q-37 -41 -106 -140q-72 -104 -137 -184 q-72 -90 -168 -152q-8 -4 -17 -10q16 -8 33 -20q86 -57 172 -148q84 -90 139 -166q57 -80 78 -133q18 -45 27 -69l8 -25l24 -72l-143 -49l-26 72l-9 25q-6 23 -22 63q-14 33 -62 98q-49 70 -125 150t-147 127q-66 43 -111 53q-31 6 -63 10q6 -205 6 -327q-2 -137 -4 -160 l-2 -19l-6 -75l-154 14l8 76v18q2 18 4 148q0 121 -6 325q-12 -2 -20 -2l-43 -6l-76 -8l-6 -2z" />
<glyph unicode="L" horiz-adv-x="1112" d="M102 106q0 33 7 132q8 96 12 200q6 102 8 246q2 143 4 320q1 42 1 77q0 105 -5 142l-14 129l153 16l15 -129q4 -43 5 -155q0 -38 -1 -83q-2 -176 -4 -319q-2 -145 -9 -252q-6 -106 -12 -203q-2 -45 -4 -73q10 -2 21 -4q80 -10 165 -11q25 1 50 1q74 0 143 -5 q90 -4 172 -6q86 -2 106 -4l19 -2l78 -6l-15 -154l-96 10q-14 0 -96 2q-84 2 -176 9q-59 3 -118 3q-30 0 -60 -1q-100 0 -193 12q-2 0 -24.5 2t-33 4t-30.5 9t-31.5 17.5t-23 30t-13.5 45.5z" />
<glyph unicode="M" horiz-adv-x="1511" d="M102 10l9 76l12 104q10 100 20 318q12 221 23 403q10 178 10 224l-2 7t-3 15t2 19.5t12.5 23.5t27.5 25q35 21 59 21q10 0 16 -2q28 -10 38 -38l10 -26q14 -31 59 -125q47 -96 125 -265t125 -274q39 -88 74 -160q14 45 31 103q45 158 143 348q94 188 160 287 q66 102 104 147q29 31 68 35h9q25 0 43 -10q21 -12 32.5 -28.5t17.5 -41.5t7 -42t1 -40v-22q8 -145 31 -328q25 -188 35 -349q8 -134 8 -181v-15l-8 -108l-152 10l6 106v12q0 40 -8 167q-8 156 -33 337q-18 150 -28 275q-2 -4 -4 -6q-59 -94 -152 -275q-92 -178 -133 -321 q-45 -160 -82 -226q-2 -4 -7 -9t-19.5 -20.5t-29 -25.5t-32.5 -18t-34.5 -7t-32 15t-25.5 45q-8 23 -45 98q-39 80 -86 187q-45 102 -123 270q-35 78 -66 139q-8 -168 -18 -362q-10 -223 -23 -328l-18 -180z" />
<glyph unicode="N" horiz-adv-x="1196" d="M102 965q0 135 7 225q8 92 14 119q18 43 45 55q12 5 24 5q14 0 28 -8q26 -15 49.5 -35.5t37.5 -41.5l15 -18q59 -84 141 -219q78 -131 225 -363q129 -201 209 -317q-2 79 -2 169q0 136 4 298q8 281 16 350q6 74 11 90l18 88l152 -33l-21 -88q-2 -12 -8 -72 q-6 -66 -13 -340q-4 -174 -5 -317q0 -81 2 -152q5 -157 5 -209q0 -18 -1 -24q-2 -4 -4 -10t-9.5 -23.5t-17.5 -26t-29.5 -17.5t-44.5 1q-12 4 -22 9.5t-16.5 11.5t-9.5 10t-6 10t-3 8q-18 29 -100 148q-84 123 -233.5 354.5t-229.5 364.5q-39 68 -72 118q-2 -55 -2 -120 q0 -131 6 -289q6 -156 10 -287q3 -58 3 -107q0 -65 -5 -114l-12 -160l-154 12l7 78l6 82q5 45 5 104q0 45 -3 99q-4 131 -10 289t-7 293z" />
<glyph unicode="O" horiz-adv-x="1277" d="M102 195v215q2 145 2 252q2 106 5 217q4 113 10 178q4 57 6 96l-14 -2l-9 154l131 6q55 2 158 2q100 -2 242 -2q139 0 229 4q100 4 144 4q63 0 96 -19q20 -12 33.5 -28.5t18.5 -35.5t6 -33.5t0 -37t-1 -30.5q4 -96 4 -224q0 -125 3 -275.5t8 -234.5q3 -57 3 -102 q0 -22 -1 -41q-2 -57 -9 -92q-10 -59 -51 -86q-12 -8 -23.5 -14.5t-25.5 -8.5t-21.5 -3t-27 -1t-27.5 -2q-74 -4 -264 -10l-315 -12q-129 -4 -170 -4q-74 0 -109 41q-10 14 -16 26t-9.5 24.5t-4.5 26t0 25.5t-1 27zM256 199q2 -10 2 -21q45 2 148 4l317 13q188 6 260 10 q20 2 37 4q2 23 2 55q1 16 1 36q0 40 -3 93q-4 86 -7 238.5t-3 279.5q0 123 -4 217q0 23 -2 37q-41 0 -136 -4q-94 -4 -235 -4t-244 2h-110v-10q-2 -41 -9 -107q-4 -59 -8 -168q-2 -111 -4 -215q0 -104 -2 -251v-209z" />
<glyph unicode="P" horiz-adv-x="1251" d="M102 670v153h91q10 0 51 -2q0 37 2 68q2 102 2 188v115q0 39 12 72q12 27 34.5 42t34 18t36.5 7q42 8 107 8h26q72 0 157 2q86 2 176 5q92 0 134 -3q47 -2 86 -14q63 -20 86 -76q12 -28 12 -78q0 -28 -4 -63q-8 -78 -22.5 -181.5t-22.5 -154.5q-10 -61 -23 -86 q-12 -23 -29.5 -36t-37 -17t-34.5 -5t-38 1t-31 2q-39 -1 -80 -1q-61 0 -125 2q-106 3 -215 11q-47 2 -94 6v-37v-305q2 -147 2 -180v-108h-153v108q0 33 -2 178v309q0 25 2 48q-41 4 -52 4h-88zM397 807q49 -4 101 -6q104 -7 208 -11q66 -2 129 -3q36 0 70 1q23 0 41 3 q2 6 2 10q8 49 21.5 150.5t21.5 176.5q4 37 4 58q-16 4 -39 4q-35 2 -120 2q-90 -2 -179 -4q-88 -2 -163 -2h-27q-39 0 -66 -4v-105q0 -90 -2 -194q-2 -35 -2 -76z" />
<glyph unicode="Q" horiz-adv-x="1472" d="M102 1296h17l-4 15l106 30q43 14 162 15h45q90 0 186 -6q117 -6 200 -10.5t171 -6.5q96 0 137 -8q31 -8 60.5 -29.5t36.5 -64.5q1 -13 1 -40.5t-1 -70.5q0 -86 -2 -200q-1 -56 -1 -117t1 -127q4 -133 8 -273q3 -95 3 -146q0 -26 -1 -40q-4 -57 -35 -96q37 -37 61 -58 l119 -102l-100 -117l-117 101q-45 39 -106 102q-49 -8 -123 -14q-88 -4 -205 -6q-119 0 -234 12q-121 12 -176 35q-74 29 -106 94q-29 55 -29 117q0 43 -4 172q-6 129 -22 288q-18 166 -29 320zM264 1194l8 -117q12 -152 29 -315q18 -166 25 -299q4 -133 4 -178 q0 -25 12 -47q6 -14 27 -21q37 -16 135 -27q106 -10 215 -10q113 2 196 6q4 0 7 2q-35 39 -45 52l-15 18l-47 61l119 95l63 -78q10 -12 76 -86q0 51 -2 149q-4 139 -7 273q-2 80 -2 154q0 50 1 98q2 115 2 196q2 33 2 58q-33 2 -84 2q-90 2 -176 6q-84 4 -203 10 q-92 6 -177 6h-42q-96 0 -119 -6v-2h-2z" />
<glyph unicode="R" horiz-adv-x="1320" d="M102 756l76 6l21 2q14 2 47 2v96q0 98 -4 174q-2 78 -2 115q0 47 14 84q4 14 12 26.5t18.5 20.5t18.5 14.5t23.5 12.5t22.5 8t24.5 6t21.5 6q90 25 191 33q80 8 152 8h28q82 -2 139 -4q66 -2 119 -12q61 -14 94 -35q47 -35 58 -117q6 -53 6 -149q0 -94 -6 -187 q-8 -94 -21 -137q-10 -39 -35 -65q-23 -25 -53 -37q-45 -18 -133 -23q-66 -4 -137 -4q31 -33 49 -74q37 -74 49 -153q10 -61 43 -142q25 -61 66 -81q14 -8 25 -11.5t15 -3.5h5l43 19l71 28l58 -143l-115 -45q-29 -12 -61 -12q-51 0 -111 30q-92 47 -137 162q-39 96 -54 172 q-8 59 -34 115q-20 45 -68 69q-55 31 -123 43q-76 12 -102 13h-15q-2 -152 -4 -271q-4 -127 -4 -174v-127h-153v127q0 49 4 178q4 125 4 283v10q-29 0 -37 -2l-18 -2l-78 -6zM393 1151q0 -33 2 -109q4 -80 4 -180v-100q68 0 146 -2q135 0 223 -4q42 -2 81 -2t75 2 q59 4 84 12q8 33 14 111q6 86 6 174t-4 131q-2 6 -2 12q-12 4 -31 6q-39 10 -90 10q-57 2 -137 5h-28q-64 0 -136 -7q-88 -8 -164 -30q-25 -6 -41 -13q-2 -8 -2 -16z" />
<glyph unicode="S" horiz-adv-x="1220" d="M109 1004q-6 56 -6 97.5t6 69.5q14 82 79 123q53 31 142 39q74 4 155 8q82 4 164 9q21 1 41 1q64 0 119 -10q86 -14 123 -47q37 -31 53 -84q10 -31 35 -100q23 -70 33 -90l12 -27q0 1 31 -69l-140 -64l-43 96q-14 29 -39 103q-25 72 -34 104q-4 10 -9 15q-14 8 -47 12 q-39 7 -88 7q-20 0 -41 -1q-82 -4 -161 -8q-82 -4 -152 -8q-53 -4 -74 -17q-6 -4 -10 -18q-2 -14 -2 -35q0 -35 6 -90q10 -102 12 -164q0 -45 11 -65q2 -6 8 -11q23 -8 113 -16q106 -10 196 -14q94 -4 195 -9q109 -6 166 -20q80 -20 120 -90q35 -58 35 -145v-9 q-2 -74 -14 -170q-14 -104 -43 -166q-33 -70 -73 -98.5t-140 -36.5q-84 -8 -223 -14q-139 -8 -213 -12q-62 -3 -95 -3h-14q-53 0 -77.5 38t-28.5 79q-6 51 -7 125v148h154v-148q0 -49 2 -88q25 0 57 2q74 4 213 12q137 6 218 13q47 4 67 12q8 10 21 35q18 41 28 123 q12 88 15 153v11q0 39 -13 59q-10 16 -28 20q-41 10 -136 17q-98 4 -192 8t-203 14q-121 10 -166 33q-57 27 -84 86q-20 47 -22 123q-2 55 -12 152z" />
<glyph unicode="T" horiz-adv-x="1472" d="M102 1311l109 6q33 2 141 6q67 4 135 4q46 0 93 -2q12 -2 24 -2v16h154v-20h131q197 0 272 -2q33 -1 53.5 -1t28.5 1l98 18l29 -151l-98 -19q-20 -4 -58 -4q-25 0 -59 2q-74 2 -266 2h-131q-2 -27 -4 -67q-4 -109 -4 -242q-2 -131 -7 -305q-2 -172 -6 -295 q-2 -135 -2 -158v-100h-153v100q0 25 2 154q4 129 6 301q4 178 6 305q2 135 4 244q2 39 4 67q-16 0 -33 2q-54 2 -107.5 2t-105.5 -2q-109 -6 -139 -8l-108 -6z" />
<glyph unicode="U" horiz-adv-x="1247" d="M102 1331l152 21l10 -76l4 -33q6 -35 8 -174q4 -135 7 -258q2 -121 8 -256t6 -201q0 -63 -4 -108q-4 -35 -6 -68q20 -2 49 -2h32q66 0 152 6q106 6 228 21q125 14 188 20q18 0 35 2q1 20 1 47q0 54 -3 138q-2 52 -2 100q0 73 4 141q4 109 14 246q8 133 8 199 q-2 70 -2 114l-2 47l-2 78l154 2l4 -123q0 -47 2 -116q0 -72 -8 -211q-10 -135 -15 -244q-4 -62 -4 -132q0 -47 2 -97q3 -86 3 -144q0 -29 -1 -51l-1 -15q-1 -14 -2 -21t-3 -21.5t-7 -23.5t-12 -20.5t-20.5 -19.5t-29.5 -14q-27 -8 -99 -14q-63 -6 -184 -21 q-125 -14 -238 -20q-89 -6 -160 -6h-34q-102 0 -148 34q-54 38 -54 105q0 9 1 18q2 37 6 78q4 39 4 96q0 61 -6 195q-6 135 -8 260q-2 121 -6 256q-2 131 -6 160z" />
<glyph unicode="V" horiz-adv-x="1368" d="M102 1300l142 60l30 -72l7 -16q6 -16 75 -154q72 -145 147 -328.5t118 -318.5q23 -72 43 -127q37 94 81 205q66 156 121 268q55 113 127 250q72 133 86 166l51 100l138 -67l-49 -101q-16 -35 -91 -172q-72 -133 -124 -243q-53 -109 -117 -261q-63 -154 -109 -272l-59 -78 q-60 -69 -94 -69q-32 0 -43 59q-4 18 -29 78q-35 80 -80 217q-41 129 -113.5 308t-142.5 319q-72 143 -78 163z" />
<glyph unicode="W" horiz-adv-x="1609" d="M102 1319l154 6l6 -203q6 -125 25 -364q20 -242 30 -361q10 -113 25 -170q2 -12 5 -18t5 -6h2q22 -8 89 -8q34 0 79 2q106 4 226 6l-3 45q-3 39 -3 118.5t3 198.5q4 233 5 348v134v92h153v-92v-133t-4 -353q-3 -116 -3 -191.5t3 -111.5l2 -51q125 2 213 6q104 2 158 4 q14 0 26 2q2 14 2 29q2 78 7 264q6 188 18 336q14 143 23 264q6 121 6 156v112h153v-112q0 -39 -6 -164q-8 -125 -22 -270q-12 -141 -19 -326q-4 -186 -6 -262v-15.5v-16.5t-1 -16.5t-2 -17.5t-3 -16t-5 -17.5t-8 -15.5t-11.5 -16t-14.5 -12.5t-18 -12.5q-39 -23 -113 -27 q-55 -2 -158.5 -5t-277.5 -7q-164 -2 -314 -8q-38 -1 -70 -1q-108 0 -153 15q-86 29 -112 131q-18 70 -29 195q-10 121 -31 362q-18 242 -24 371l-5 127z" />
<glyph unicode="X" horiz-adv-x="1361" d="M102 1333l121 97l47 -62l49 -61q49 -63 113 -158q63 -94 158 -236q45 -70 86 -129q49 66 100 134q123 158 193 247q68 84 92 127l67 115l134 -76l-68 -114q-31 -53 -104 -148q-70 -88 -191 -246q-70 -88 -131 -172q61 -88 111 -162q53 -80 104 -139q55 -66 78 -94 q23 -27 41 -41l22 -18l60 -47l-97 -121l-81 67q-29 23 -62 62q-27 31 -80 94q-55 66 -112 151q-37 53 -80 117q-96 -137 -176 -243.5t-119 -161.5l-80 -123l-129 86l82 121q41 61 123 170q80 106 180 247q14 18 27 37q-53 78 -117 174q-96 143 -158 236q-61 90 -106 149z " />
<glyph unicode="Y" horiz-adv-x="1228" d="M102 1341l152 29l25 -133q10 -57 30 -182q20 -127 23 -174v-13q10 -2 20 -2q70 -8 159 -12q45 -2 88 -2t85 2l176 4q80 2 111 8q3 15 3 39q0 11 -1 25q-4 72 -12 172q-8 102 -13 153q-4 51 -4 68l-8 94l151 13l9 -93q2 -18 6 -69t12 -154q8 -102 12 -178q1 -14 1 -27 q0 -72 -19 -112q-31 -63 -104 -80q-43 -8 -140 -12q-63 -2 -129 -5l-4 -63q-6 -70 -22 -231q-15 -147 -15 -221v-9l2 -78l2 -78l-153 -4l-2 76l-2 80q-1 15 -1 33q0 81 15 217q16 160 23 227l4 49q-39 2 -78 2q-92 4 -168 13q-4 0 -21.5 1t-26.5 3t-25.5 6t-27 11 t-22.5 20.5t-18 31.5q-14 31 -17 88q-2 37 -20 156q-20 123 -31 178l-10 58z" />
<glyph unicode="Z" horiz-adv-x="1294" d="M104 108q-3 8 -3 16q0 14 8 30q8 27 34 61q23 29 68 76q39 43 94 125q59 86 128 181t153 206q84 113 186 221q92 98 160 168q-68 4 -195 6q-70 1 -128.5 1t-104.5 -1q-94 -2 -180 -2h-113l-102 2l2 154l104 -2h109q88 0 176 2q49 1 108.5 1t130.5 -1q145 -2 217 -9 q68 -4 97 -4q35 -1 75 -33q28 -23 28 -56q0 -14 -5 -29q-4 -14 -10 -26.5t-17.5 -26t-17.5 -20.5t-25.5 -25.5t-25.5 -26.5q-72 -70 -170 -176q-96 -102 -178 -209q-82 -111 -150 -204t-125 -179q-61 -88 -108 -140q-4 -6 -9 -10h183q115 0 233 2q117 4 201 10l129 9l43 4 l76 6l12 -154l-76 -6l-43 -4q-43 -2 -129 -8q-88 -6 -209 -10q-121 -2 -239 -2h-189q-82 0 -121 10q-6 2 -14 5t-25.5 12t-26 22.5t-16.5 33.5z" />
<glyph unicode="a" horiz-adv-x="1183" d="M102 287q2 109 4 205q4 100 11 135q6 37 31.5 61.5t46 32.5t57.5 18q4 2 6 2q94 27 215 33q111 6 266 14h19q-2 23 -2 39q-4 27 -27 41q-43 27 -90 31q-39 5 -101 5q-31 0 -67 -1q-113 -4 -180 -8l-144 -6l-6 153l76 5l68 2q68 4 182 8q40 1 74 1q68 0 114 -5 q84 -8 154 -54q88 -55 98 -155q2 -20 4 -47q18 2 31 4l125 10l16 -152l-127 -12q-16 -2 -47 -4q-4 -121 -8 -223q-6 -102 -8 -150q-2 -45 -2 -73q0 -33 -19 -62q-20 -35 -63 -55q-53 -29 -158 -37q-92 -6 -170 -8q-76 -2 -139 -8q-36 -3 -63 -3t-46 3q-59 10 -98 75 q-33 54 -33 171v14zM256 287q0 -82 10 -105l4 -4q23 0 60 2q68 6 145 8q76 2 164 9q72 6 98 18q2 27 2 61q2 49 9 152q4 94 8 207h-8q-154 -8 -267 -14q-102 -4 -180 -27q-23 -6 -35 -12q-4 -33 -6 -97q-4 -94 -4 -198z" />
<glyph unicode="b" horiz-adv-x="1091" d="M102 969l76 2l43 2q-6 182 -8 260l-6 162l153 6l7 -162q2 -80 8 -262q100 0 196 -2q104 -2 189 -17q4 -2 10 -2q33 -6 49.5 -10t39 -15t40.5 -30q33 -39 43 -117q6 -55 14 -143t23 -203q10 -78 10 -128q0 -31 -4 -50q-16 -74 -78 -104q-37 -18 -170 -43 q-123 -23 -227 -39q-88 -12 -143 -12q-17 0 -31 1q-25 2 -47.5 10.5t-46 32t-27.5 58.5q-1 16 -1 36t1 44q0 45 6 141t6 231q1 44 1 95t-1 108l-43 -2h-2l-76 -2zM367 215q43 0 118 12q104 14 226 37q90 16 123 27v2q2 8 2 23q0 34 -9 104q-14 117 -24 207q-6 86 -15 139 q0 16 -4 29q-18 6 -53 12q-72 12 -162 14q-94 2 -188 2q1 -60 1 -112t-1 -97q0 -137 -6 -237q-6 -94 -6 -137q0 -12 -2 -25z" />
<glyph unicode="c" horiz-adv-x="1118" d="M103 204q-1 20 -1 46q0 36 2 84q2 80 13 225q10 158 51 250q51 121 170 137q74 12 183 12h32q129 0 207 -6q80 -4 102 -6l96 -12l-16 -152l-96 11q-20 2 -96 8q-74 4 -197 4h-33q-96 0 -158 -10q-37 -4 -55 -47q-29 -68 -37 -199q-10 -143 -12 -221q-2 -59 -2 -97 q45 -6 125 -10q96 -6 213 -8q113 0 190 8q82 8 113 12l107 11l14 -154l-107 -10q-29 -4 -110 -12q-78 -9 -187 -9h-22q-121 2 -221 9q-100 6 -152 14q-53 8 -84 43q-29 33 -32 79z" />
<glyph unicode="d" horiz-adv-x="1228" d="M102 389v207q2 90 15 145q14 66 35 93q27 37 86 49q39 8 180 16q133 8 264 14q57 2 106 2q-1 49 -1 95t1 90q2 139 3 176l4 115l153 -7l-4 -112q0 -37 -2 -174q-1 -42 -1 -86.5t1 -91.5q51 2 68 4l102 10l14 -154l-102 -10q-23 -2 -80 -4q4 -147 6 -293q1 -82 1 -139.5 t-1 -91.5q-2 -62 -2 -91q0 -84 -110 -112q-41 -11 -110 -11q-46 0 -105 5q-133 12 -228 16q-96 4 -143 4q-45 0 -78 25q-47 35 -59 106q-12 74 -13 205zM256 389q0 -119 10 -178v-4q51 -2 135 -4q98 -4 234 -17q58 -5 97.5 -5t62.5 5q0 25 2 60q1 32 1 88.5t-1 138.5 q-2 146 -6 291q-47 -2 -103 -4q-129 -6 -262 -15q-125 -6 -154 -12q-2 -10 -6 -24q-8 -41 -10 -115v-205z" />
<glyph unicode="e" horiz-adv-x="1091" d="M102 479l9 154l47 -2q-6 121 -17 205q-5 39 -5 71q0 66 20 103q16 35 51 54t74 21q49 0 172 -16q115 -16 204 -22q104 -8 168 -31q76 -27 113 -68q41 -47 41 -162q1 -43 1 -77.5t-1 -59.5q-2 -61 -12 -90q-18 -53 -78 -76q-37 -14 -109 -20q-62 -6 -156 -7h-22 q-87 0 -209 7q-41 2 -76 4q2 -55 2 -94v-29q0 -71 -8 -121l17 1q16 1 35.5 3t27.5 2q131 14 248 19q58 1 102.5 1t77.5 -1h78h92v-154h-92h-82q-30 1 -73.5 1t-98.5 -1q-111 -4 -235 -16q-101 -12 -148 -12q-17 0 -27 2q-35 4 -67 36q-23 24 -22 55q0 12 3 25q4 16 13 64 q6 38 6 94v29q0 43 -2 106zM291 932q0 -7 -1 -16q0 -26 5 -64q10 -94 16 -229q39 -2 92 -7q116 -7 199 -7h20q88 1 146 7q35 2 55 7q0 14 2 30q1 26 1 59t-1 74q0 43 -6 62q-12 12 -43 22q-47 16 -129 23q-96 8 -215 25q-100 12 -141 14z" />
<glyph unicode="f" horiz-adv-x="892" d="M102 963l121 12q31 4 103 12v78q-2 90 -4 166q-1 25 -1 46q0 52 7 83q20 80 116 98q46 8 108 8h26q42 -3 70 -3q14 0 24 1l112 4l9 -151l-113 -6q-14 -1 -31 -1q-33 0 -80 3q-14 1 -27 1q-38 0 -67 -5q-1 -15 -1 -33t1 -41q2 -76 4 -168v-63q47 4 72 6l47 4l76 8l16 -152 l-76 -8l-47 -4q-31 -4 -92 -10q-2 -102 -10 -227q-6 -133 -10 -242q-1 -35 -1 -65q0 -60 3 -101l6 -63l4 -78l-152 -11l-6 76l-6 66q-3 45 -3 110q0 33 1 70q4 111 12 246q4 109 9 202q-55 -6 -82 -8l-121 -14z" />
<glyph unicode="g" horiz-adv-x="1148" d="M102 -358l41 149l97 -29q18 -4 96 -10q84 -8 230 -13q105 -4 167 -4q25 0 43 1q29 0 45 6q10 25 15 80q1 21 1 43q0 86 -18 190q-4 20 -8 45q-70 -4 -186 -16q-156 -14 -269 -27l-74 -4h-7q-33 0 -67 15q-38 18 -58 57q-16 29 -20 73q-1 24 -1 43q0 17 1 31q3 29 13 105 q23 166 33 293q12 160 82 217q63 53 188 61q61 4 135 4q50 0 105 -2h35l-6 176l153 4l6 -184h113v-153h-104q10 -113 30 -277q16 -145 29 -250h10l76 10l21 -151l-78 -10h-6q4 -18 6 -35q19 -107 19 -198q0 -37 -3 -72q-2 -51 -6 -76t-19.5 -59.5t-43.5 -55.5 q-51 -35 -138 -37q-19 -1 -46 -1q-65 0 -172 4q-150 5 -240 14q-94 8 -123 16zM285 209q7 -1 15 -1q17 0 40 3q115 10 270 27q111 10 181 16q-14 104 -31 244q-21 182 -31 299h-47q-52 2 -98 2q-70 0 -129 -4q-74 -4 -99 -27q-20 -18 -26 -111q-12 -131 -35 -301 q-11 -78 -11 -123q0 -14 1 -24z" />
<glyph unicode="h" horiz-adv-x="1124" d="M102 1010l140 16q2 135 6 221q2 102 6 142l10 112l154 -14l-10 -113q-4 -35 -9 -133q-2 -80 -4 -205h94q131 -4 244 -10q131 -8 201 -55q86 -55 88 -187q1 -31 1 -67q0 -72 -3 -166q-2 -137 -4 -279q0 -147 -4 -178l-8 -106l-154 14l10 104q2 27 2 166q2 143 6 283 q1 68 1 124.5t-1 100.5q0 51 -18 64q-37 23 -127 28q-109 8 -236 11h-92q-1 -48 -1 -99q0 -103 3 -221q4 -229 6 -327q2 -100 3 -125l-3 -23l-2 -76l-153 6l4 99q0 20 -2 116t-6 328q-2 170 -2 309l-45 -4l-78 -10z" />
<glyph unicode="i" horiz-adv-x="380" d="M102 1405l154 12l16 -198l-151 -15zM117 -2v92q0 18 2 164q4 145 6 268t2 211v113v102h154v-102v-113q0 -90 -2.5 -214t-6.5 -269q-2 -143 -2 -160v-92h-153z" />
<glyph unicode="j" horiz-adv-x="806" d="M102 -61l152 24l12 -76l2 -16q2 -14 15 -59q8 -39 22 -70q2 -2 4 -6q25 -2 74 -2q80 0 133 2q14 2 23 4q6 14 10 43q2 12 2 33q0 54 -12 166q-16 164 -33 391t-17 366q0 137 -2 183l-8 122l154 9l8 -123q2 -49 2 -189q0 -133 16 -356q16 -225 33 -387q12 -124 12 -192 q0 -26 -2 -44q-10 -76 -40 -116q-43 -57 -136 -64q-61 -2 -145 -2q-92 2 -123 10q-55 14 -90 84q-23 47 -37 103q-10 49 -14 69zM473 1202l6 101q2 27 6 55l2 28q1 0 11 76l153 -20l-14 -105q-4 -23 -4 -45l-6 -100z" />
<glyph unicode="k" horiz-adv-x="997" d="M102 625l76 8l31 2q4 2 10 2q-6 92 -10 184q-12 211 -16 348t-5 166v103h154v-103q0 -27 4 -162t16 -344q4 -90 9 -180q72 8 131 39q63 33 106 129q55 123 76 162l53 104l137 -71l-55 -105q-16 -35 -71 -153q-49 -106 -121 -166q80 -41 137 -121q63 -90 96 -188.5 t33 -137.5l2 -28l2 -76l-154 -4l-4 104q0 20 -24 94q-27 76 -76 146q-43 61 -102 84q-66 26 -87 26h-1l-66 -2q2 -39 4 -75q16 -213 19 -285l4 -145l-154 -5l-4 146q-2 68 -19 276l-4 86h-2l-30 -4l-78 -8zM412 639z" />
<glyph unicode="l" horiz-adv-x="407" d="M102 1432h154l2 -172q0 -96 6 -353q6 -252 15 -403q10 -152 19 -260q7 -89 7 -130v-16l-4 -108l-154 8l5 108v12q0 33 -7 113q-8 111 -18 263q-10 156 -16.5 411.5t-6.5 351.5z" />
<glyph unicode="m" horiz-adv-x="1609" d="M102 727v33q0 47 4 80q8 66 54 104q41 33 112 41q28 3 62 3t72 -3q66 -4 151 -6q24 -1 53 -1q57 0 133 3v72h154v-66q88 2 166 2h61q89 0 162 -4q45 -4 64.5 -6t48 -11.5t51.5 -25.5q10 -6 17.5 -14t13.5 -19.5t10 -18.5t7 -21.5t4 -20.5t2 -23.5t2 -20.5t1 -23.5v-22.5 q2 -44 2 -96q0 -79 -4 -179q-6 -166 -12 -241q-8 -80 -23 -133l-30 -121l-150 39l21 73l12 47q10 41 16 109q7 72 13 232q4 99 4 178q0 48 -2 88q0 43 -6 67q-25 6 -72 10q-81 5 -178 5h-33q-78 0 -166 -2q2 -53 6 -125q8 -180 10 -324q1 -48 1 -87q0 -76 -3 -112l-4 -49 l-4 -76l-153 11l8 125q3 31 3 104q0 36 -1 82q-2 141 -10 317q-4 78 -7 127q-77 -3 -136 -3q-29 0 -54 1q-92 2 -162 9q-30 2 -56.5 2t-47.5 -2q-18 -2 -29 -7q0 -4 -2 -8q-3 -21 -2 -54v-36q2 -59 18 -192q16 -137 29.5 -244t18.5 -137l4 -31l10 -76l-154 -18l-8 75l-4 31 q-4 29 -18 137q-14 106 -31 244q-16 139 -19 209z" />
<glyph unicode="n" horiz-adv-x="987" d="M102 59l2 76l5 76q2 78 18 262q16 180 16 277q0 98 -2 112v6q0 40 25 64q27 26 57 35q31 8 105 12q31 3 71 2q53 0 121 -4q119 -8 189 -19q80 -14 112 -32q16 -10 28.5 -24.5t18.5 -26t9.5 -31t4.5 -28.5t1 -31.5v-26.5q2 -47 2 -102.5t-2 -118.5q-2 -123 -3 -264.5 t-1 -186.5q1 -18 1 -32q0 -30 -3 -48l-15 -96l-151 20l14 97q2 16 0 55q0 47 1 190.5t3 268.5q2 62 2 114.5t-2 96.5q0 29 -2 45q-18 6 -43 10q-63 10 -174 16q-74 5 -126 5q-26 0 -46 -1q-23 -2 -41 -4v-73q0 -102 -16 -291q-16 -180 -19 -254l-4 -76l-2 -76z" />
<glyph unicode="o" horiz-adv-x="1087" d="M102 750l2 182v78l-2 37l119 4h27q46 0 127 -4q106 -4 213 -13q113 -8 200 -28q6 -2 22.5 -6.5t23 -6.5t19.5 -5t19.5 -6t16.5 -8t17 -11.5t16 -14.5q37 -37 37 -102q0 -8 -1 -17q-2 -45 -12 -133q-4 -35 -4 -73q0 -48 6 -103q12 -102 31 -198q9 -39 8 -72 q0 -88 -59 -139q-66 -57 -166 -66q-82 -8 -201 -8q-117 2 -203 4q-94 2 -145 12q-33 8 -55 29q-47 43 -49 131q-2 78 -5 215q-2 137 -2 322zM256 750q0 -182 2 -320q2 -139 4 -213v-16q37 -6 98 -6q86 -2 203 -5q111 0 185 7q51 6 79 30q2 0 3 3q2 2 4 18q1 4 0 9 q0 14 -5 34q-23 102 -32 213q-7 63 -7 119q0 47 5 90q8 84 10 125v2q-20 8 -53 16q-76 18 -174 25q-104 8 -211 12q-70 4 -109 4z" />
<glyph unicode="p" horiz-adv-x="1163" d="M102 221l13 154l78 -6l65 -7q8 0 18 -2q-4 197 -6 310q-2 64 -2 115t2 89q2 23 2 44l-129 -25l-30 149l153 31q86 18 258 19q164 -2 295 -5q139 -2 162 -8q27 -6 44 -21.5t23.5 -34.5t7.5 -34.5t0 -35t-1 -23.5q6 -78 6 -250t-2 -285q0 -119 -4 -149q-6 -51 -45 -72.5 t-80 -23.5h-13q-58 0 -198 14q-152 16 -279 29h-2h-4q4 -152 4 -271v-219l-4 -127l-153 4l4 125v215q0 127 -4 287q-18 0 -35 2zM424 674q2 -119 8 -328q10 0 23 -2q127 -10 280 -27q115 -12 168 -14q2 37 2 94q2 113 2 281t-6 242v14h-84q-129 2 -293 4q-53 0 -98 -2 q0 -23 -2 -70q-2 -35 -2 -83t2 -109z" />
<glyph unicode="q" horiz-adv-x="1478" d="M106 399q-4 45 -4 90q0 111 25 218q18 84 44 136t75 81q61 37 180 51q85 11 191 11q31 0 63 -1q127 -4 172 -10l-2 121l154 2l4 -176q2 -100 4 -271q0 -172 1 -371.5t1 -351.5q2 -84 2 -141q35 27 76 63q88 80 108 99l80 63l96 -121l-78 -63q-18 -14 -104 -90 q-94 -86 -164 -121q-20 -10 -47 -15q-8 -1 -16 -1q-21 0 -45 8q-33 12 -52 49q-10 25 -10 59q1 29 1 81.5t-1 127.5v156h-4q-16 0 -98 -10q-88 -12 -244 -25q-45 -4 -84 -4q-110 0 -176 29q-102 45 -123 127q-12 49 -25 200zM260 414q10 -137 21 -178q8 -10 36 -25 q34 -13 105 -13q35 0 80 3q152 12 235 22q92 12 117 13h6v43q-2 201 -2 370q-2 94 -2 168l-14 4q-33 6 -166 10q-34 1 -65 1q-94 0 -167 -9q-84 -12 -120 -32q-25 -20 -48 -119q-20 -86 -20 -176q0 -41 4 -82z" />
<glyph unicode="r" horiz-adv-x="761" d="M104 735q-2 49 -2 82t2 51q2 43 17 70q18 41 72 61q37 14 112 17q32 1 66.5 1t72.5 -1q63 0 84 4l105 18l29 -151l-76 -13l-29 -6q-35 -6 -117 -6q-35 1 -67.5 1t-63.5 -1q-33 0 -51 -4q0 -2 -2 -2q-1 -9 -1 -25q0 -32 3 -90q4 -92 14 -219q10 -129 15 -250 q6 -119 6 -155v-113h-154v113q0 33 -5 149.5t-15 243.5q-10 131 -15 225z" />
<glyph unicode="s" horiz-adv-x="962" d="M102 811q2 76 37 123q35 49 117 76q66 23 164 39q86 12 175 12h26l170 -2l-3 -154l-172 2h-25q-75 0 -149 -10q-84 -14 -135 -33q-35 -10 -43 -20q-6 -10 -8 -39v-11q0 -39 12 -89q12 -59 33 -103q0 -2 2 -4q43 2 127 16q98 18 195 25q67 5 104 5q18 0 29 -1 q35 -4 63.5 -29.5t34.5 -60.5q3 -16 3 -39q0 -34 -7 -84q-12 -68 -25 -139q-14 -76 -22 -98q-16 -49 -78 -76q-41 -16 -168 -29q-121 -12 -221 -12q-84 0 -102 -2l-95 -13l-22 152l94 14q25 2 125 2q92 0 205 13q88 8 121 16q4 23 12 61q12 70 24 136q2 20 5 34 q-29 0 -70 -2q-88 -6 -176 -22q-98 -20 -154 -21h-7q-35 0 -65 17q-47 23 -71 76q-27 59 -43 135q-17 72 -17 132v7z" />
<glyph unicode="t" horiz-adv-x="798" d="M102 1004l76 4l49 4q39 2 109 6q4 125 6 153l2 29l4 76l154 -10l-6 -105q-2 -23 -7 -129q10 0 19 2q78 14 94 15h12l78 4l6 -154l-77 -4h-13q-12 -2 -73 -12q-23 -4 -50 -6q-1 -33 -1 -66q0 -66 3 -129q5 -123 5 -282v-54q-2 -193 -5 -215l-6 -98l-153 12l6 76v20 q2 18 4 207v91q0 132 -4 237q-2 92 -2 188q-59 -4 -94 -6l-125 -8zM621 895z" />
<glyph unicode="u" horiz-adv-x="1120" d="M102 1032l152 19l12 -95q2 -23 4 -221q1 -96 1 -177.5t-1 -147.5t-1 -117.5t1 -89.5q0 -20 4 -33q35 -12 127 -18q104 -6 208 -5q9 -1 17 -1q112 0 199 10q23 2 39 6q0 35 -14 102q-27 117 -48.5 283t-27.5 289l-6 194l152 6l8 -194q6 -117 26.5 -275.5t44.5 -269.5 q17 -80 17 -134q0 -37 -8 -61q-29 -88 -168 -100q-92 -8 -210 -10h-47q-95 0 -192 6q-131 8 -186 35q-86 41 -88 168q-1 40 -1 92.5t1 118.5t1 146.5t-1 176.5q0 178 -2 203z" />
<glyph unicode="v" horiz-adv-x="1218" d="M102 1014l142 59l59 -143q29 -68 76 -156q51 -100 80 -190q25 -78 63 -166q35 -76 64 -137q8 16 14 34q37 94 94 211q55 111 111 230q59 123 90 172q27 43 37 65l49 94l137 -71l-49 -92q-14 -29 -45 -76q-25 -43 -80 -158q-57 -119 -113 -233q-55 -111 -88 -197 q-39 -96 -67 -147q-40 -71 -89 -71q-24 0 -50 17q-25 16 -35 45q-12 27 -45 91q-35 70 -76 161q-41 94 -70 183q-25 76 -69 163q-49 96 -80 170z" />
<glyph unicode="w" horiz-adv-x="1515" d="M102 1047l154 12l10 -133q4 -59 10.5 -213t6.5 -250q0 -88 8 -139q8 -47 20 -74q4 -6 19 -10q37 -12 112 -19q82 -6 142 -8q51 0 125 -2q-2 25 -4 55q-6 88 -11 195q-2 102 -8 176t-14 139l-21 146l152 20l20 -143q10 -72 17 -150q6 -78 8 -184q4 -102 10 -189 q2 -41 4 -73q35 -2 76 -4q86 -2 133 -2q39 0 76 8q25 6 33 14q14 14 34 47q16 29 25 78q10 59 16 154q5 82 5 170v30v158q0 45 -5 80l-12 115l152 16l12 -115q6 -43 6 -96v-156q1 -28 1 -55q0 -82 -5 -158q-6 -102 -18 -170q-12 -78 -45 -131q-31 -47 -56 -75 q-35 -35 -102 -54q-57 -14 -117 -14q-51 0 -139 4q-33 0 -66 2l-6 -82l-151 8l4 80q-78 4 -131 4q-66 2 -152 9q-94 8 -147 24q-78 25 -111 92q-23 47 -33 115q-10 63 -10 164q0 92 -6 243.5t-10 206.5l-4 58z" />
<glyph unicode="x" horiz-adv-x="1116" d="M102 995l115 103l51 -58l56 -61q57 -66 143 -178q63 -84 117 -160q49 51 106 115q94 102 123 143l76 109l125 -88l-43 -64l-31 -43q-35 -49 -135 -160q-72 -80 -129 -141q39 -53 80 -102q70 -88 127 -150l110 -121l-112 -102l-111 119q-59 66 -133 155q-35 43 -68 86 q-51 -57 -114 -137q-113 -139 -131 -166l-21 -33l-41 -65l-129 82l41 65l21 33q23 35 139 180q84 102 143 170q-61 86 -133 183q-82 109 -135 168z" />
<glyph unicode="y" horiz-adv-x="1116" d="M102 -203h129q57 0 154 -10q92 -8 221 -18q54 -5 94 -5q48 0 76 7q10 0 17 2q4 27 4 63q4 78 4 186.5t-6 206.5q-2 41 -4 66q-15 1 -34 1t-42 -1t-51 -1q-68 0 -160 7q-141 8 -228 61q-104 61 -120 213q-13 111 -13 213v15q0 106 2 153v45l2 76l154 -2l-2 -123 q-2 -45 -2 -149v-29q0 -87 10 -182q8 -76 47 -98q55 -33 160 -41q81 -5 140 -5q30 0 55 1q27 1 48 1t36 -1q2 70 6 178q4 117 14 227q12 111 25 166l26 125l152 -33l-29 -125q-10 -47 -20 -149q-10 -104 -15 -217q-4 -113 -6 -183l-2 -67v-29v-12q0 -12 1 -24.5t2 -33 t1 -34.5q6 -102 6 -214t-4 -194q-4 -92 -14 -125q-8 -25 -22.5 -41t-38 -25.5t-31.5 -11.5t-37 -8q-43 -8 -108 -8q-47 0 -105 4q-131 10 -223 20q-90 8 -140 9h-129v153zM145 1001z" />
<glyph unicode="z" horiz-adv-x="1230" d="M104 309q-2 32 -2 64q0 58 7 114q8 57 42.5 101.5t90.5 56.5q70 16 174 25q102 10 243 16q137 8 199 14q10 2 23 5v14q1 28 1 57.5t-1 61.5q-2 43 -7 69q-14 1 -32 1t-39 -1q-88 -2 -172 -6q-84 -6 -197 -14l-115 -10l-90 -27l-41 147l91 27q23 6 143 16q115 8 201 15 q86 4 178 6h37q69 0 96 -6q63 -18 86 -94q12 -45 14 -119q1 -34 1 -66t-1 -61v-16.5t-1 -17.5t-2 -17.5t-3 -19.5t-6 -16.5t-10 -18.5t-15 -17q-10 -10 -20 -17.5t-18.5 -10.5t-21.5 -6t-18.5 -4t-21.5 -3t-20 -2q-66 -8 -209 -17q-139 -6 -238 -14q-96 -10 -154 -22h-4 q-6 0 -10 -29q-6 -44 -6 -91q0 -28 2 -57q6 -84 12 -137q2 -23 6 -30q10 -6 29 -11q29 -4 87 -4h42q94 2 232 8q139 6 223 9q28 1 51 1q46 0 74 -3l39 -2l75 -7l-10 -151l-114 6q-22 3 -65 3q-21 0 -48 -1q-82 -2 -217 -8q-139 -6 -236 -8q-30 -1 -55 -1q-64 0 -104 7 q-70 12 -109 51q-43 41 -53 123q-6 57 -13 145z" />
<glyph unicode="&#xad;" d="M102 516l4 152h76l80 -2t184 -11q96 -6 162 -2q72 4 94 4h97v-153h-97q-18 0 -86 -4q-74 -4 -180 4q-102 6 -178 8z" />
<glyph unicode="&#x2000;" horiz-adv-x="764" />
<glyph unicode="&#x2001;" horiz-adv-x="1528" />
<glyph unicode="&#x2002;" horiz-adv-x="764" />
<glyph unicode="&#x2003;" horiz-adv-x="1528" />
<glyph unicode="&#x2004;" horiz-adv-x="509" />
<glyph unicode="&#x2005;" horiz-adv-x="382" />
<glyph unicode="&#x2006;" horiz-adv-x="254" />
<glyph unicode="&#x2007;" horiz-adv-x="254" />
<glyph unicode="&#x2008;" horiz-adv-x="191" />
<glyph unicode="&#x2009;" horiz-adv-x="305" />
<glyph unicode="&#x200a;" horiz-adv-x="84" />
<glyph unicode="&#x2010;" d="M102 516l4 152h76l80 -2t184 -11q96 -6 162 -2q72 4 94 4h97v-153h-97q-18 0 -86 -4q-74 -4 -180 4q-102 6 -178 8z" />
<glyph unicode="&#x2011;" d="M102 516l4 152h76l80 -2t184 -11q96 -6 162 -2q72 4 94 4h97v-153h-97q-18 0 -86 -4q-74 -4 -180 4q-102 6 -178 8z" />
<glyph unicode="&#x2012;" d="M102 516l4 152h76l80 -2t184 -11q96 -6 162 -2q72 4 94 4h97v-153h-97q-18 0 -86 -4q-74 -4 -180 4q-102 6 -178 8z" />
<glyph unicode="&#x2013;" horiz-adv-x="1228" d="M102 516l6 152h112l117 -2q118 -2 270 -11q141 -6 238 -2q106 4 138 4h143v-153h-143q-26 0 -126 -4q-109 -4 -264 4q-150 6 -262 8z" />
<glyph unicode="&#x2014;" horiz-adv-x="2252" d="M102 516l12 152h223l235 -2t541 -11q282 -6 476 -2q211 4 276 4h285v-153h-285q-53 0 -253 -4q-217 -4 -529 4q-299 6 -523 8z" />
<glyph unicode="&#x2018;" horiz-adv-x="448" d="M102 854v96q0 20 2 88q4 82 41 160l64 129l137 -65l-63 -132q-23 -47 -25 -98q-2 -66 -2 -82v-96h-154z" />
<glyph unicode="&#x2019;" horiz-adv-x="458" d="M102 860l37 68l29 53q20 37 27 86q6 63 6 90l2 105l153 -5l-2 -104q0 -31 -8 -100q-8 -80 -43 -146l-65 -121z" />
<glyph unicode="&#x201c;" horiz-adv-x="782" d="M102 956q-2 43 2 105q6 70 27 110l45 95l139 -68l-34 -68l-13 -26q-6 -14 -10 -55q-4 -51 -2 -84l6 -115l-153 -6l-5 76zM436 928q-4 31 6 116q12 94 45 144l66 98l127 -84l-66 -98q-12 -20 -20 -78q-6 -55 -6 -74l16 -94l-151 -27l-13 76z" />
<glyph unicode="&#x201d;" horiz-adv-x="702" d="M102 852l11 76l6 47q6 45 8 80t2 59v105h154v-105q0 -29 -3.5 -68.5t-9.5 -89.5l-16 -125zM375 834l49 153q23 68 22 107v127h154v-127q0 -63 -31 -154l-24 -80l-23 -74z" />
<glyph unicode="&#x202f;" horiz-adv-x="305" />
<glyph unicode="&#x205f;" horiz-adv-x="382" />
<glyph unicode="&#x25fc;" horiz-adv-x="1095" d="M0 0v1096h1096v-1096h-1096z" />
</font>
</defs>
</svg>
